<?xml version="1.0" encoding="UTF-8" standalone="no"?>
<svg
   height="24px"
   viewBox="0 0 24 24"
   width="24px"
   fill="#5f6368"
   version="1.1"
   id="svg2"
   sodipodi:docname="shuffle-icon.svg"
   inkscape:version="1.3.2 (091e20ef0f, 2023-11-25, custom)"
   xmlns:inkscape="http://www.inkscape.org/namespaces/inkscape"
   xmlns:sodipodi="http://sodipodi.sourceforge.net/DTD/sodipodi-0.dtd"
   xmlns="http://www.w3.org/2000/svg"
   xmlns:svg="http://www.w3.org/2000/svg">
  <defs
     id="defs2">
    <filter
       style="color-interpolation-filters:sRGB;"
       inkscape:label="Drop Shadow"
       id="filter6"
       x="-0.049193207"
       y="-0.10733881"
       width="1.1474098"
       height="1.3032348">
      <feFlood
         result="flood"
         in="SourceGraphic"
         flood-opacity="0.498039"
         flood-color="rgb(0,0,0)"
         id="feFlood5" />
      <feGaussianBlur
         result="blur"
         in="SourceGraphic"
         stdDeviation="0.300000"
         id="feGaussianBlur5" />
      <feOffset
         result="offset"
         in="blur"
         dx="1.000000"
         dy="1.000000"
         id="feOffset5" />
      <feComposite
         result="comp1"
         operator="in"
         in="flood"
         in2="offset"
         id="feComposite5" />
      <feComposite
         result="comp2"
         operator="over"
         in="SourceGraphic"
         in2="comp1"
         id="feComposite6" />
    </filter>
  </defs>
  <sodipodi:namedview
     id="namedview2"
     pagecolor="#ffffff"
     bordercolor="#000000"
     borderopacity="0.25"
     inkscape:showpageshadow="2"
     inkscape:pageopacity="0.0"
     inkscape:pagecheckerboard="0"
     inkscape:deskcolor="#d1d1d1"
     showgrid="false"
     inkscape:zoom="21.958333"
     inkscape:cx="11.795066"
     inkscape:cy="9.2675522"
     inkscape:window-width="1354"
     inkscape:window-height="731"
     inkscape:window-x="5"
     inkscape:window-y="5"
     inkscape:window-maximized="1"
     inkscape:current-layer="svg2" />
  <path
     d="M0 0h24v24H0V0z"
     fill="none"
     id="path1" />
  <path
     id="path2"
     style="stroke-width:0.56692913;fill:#ffffff;stroke:#000000;stroke-dasharray:none;filter:url(#filter6)"
     d="M 4.5195312 6.3515625 L 4.5273438 7.8242188 C 2.9218447 8.5386006 1.8007812 10.142968 1.8007812 12 C 1.8007812 14.515997 3.8576275 16.572266 6.390625 16.572266 C 7.6146238 16.572266 8.7692508 16.097937 9.59375 15.273438 L 12 13.148438 L 12.007812 13.15625 L 13.292969 12 L 13.283203 12 L 15.570312 9.96875 C 16.114312 9.4247505 16.835876 9.1269531 17.609375 9.1269531 C 19.198873 9.1269531 20.492188 10.410502 20.492188 12 C 20.492188 12.881681 20.092118 13.668762 19.466797 14.195312 L 19.464844 13.148438 L 17.449219 14.324219 L 16.738281 14.736328 C 16.298587 14.596395 15.887922 14.350812 15.535156 13.998047 L 14.566406 13.138672 L 13.283203 14.277344 L 14.363281 15.230469 C 15.23028 16.088968 16.376876 16.564453 17.609375 16.564453 L 19.480469 17.638672 L 19.472656 16.167969 C 21.078155 15.455582 22.199219 13.855494 22.199219 11.992188 C 22.199219 9.46769 20.142372 7.4277344 17.609375 7.4277344 C 16.385376 7.4277344 15.230749 7.9020633 14.40625 8.7265625 L 12 10.861328 L 10.707031 12 L 10.716797 12 L 8.4296875 14.03125 C 7.885688 14.575249 7.1641242 14.873047 6.390625 14.873047 C 4.8011266 14.873047 3.5078125 13.589498 3.5078125 12 C 3.5078125 11.118319 3.9078822 10.331238 4.5332031 9.8046875 L 4.5351562 10.84375 L 6.5507812 9.6679688 L 7.2539062 9.2597656 C 7.6975069 9.3990057 8.1089739 9.6460832 8.4648438 10.001953 L 9.4238281 10.851562 L 10.707031 9.7128906 L 9.6367188 8.7695312 C 8.7697196 7.9025321 7.6146238 7.4277344 6.390625 7.4277344 L 4.5195312 6.3515625 z " />
</svg>
